Coordinates
version=1
nRows=18
nColumns=22
inDegrees=yes

Units are S.I. units (second, meters, Newtons, ...)
If the header above contains a line with 'inDegrees', this indicates whether rotational values are in degrees (yes) or radians (no).

endheader
time	pelvis_tilt	pelvis_list	pelvis_rotation	pelvis_tx	pelvis_ty	pelvis_tz	hip_flexion_r	hip_adduction_r	hip_rotation_r	knee_angle_r	ankle_angle_r	subtalar_angle_r	hip_flexion_l	hip_adduction_l	hip_rotation_l	knee_angle_l	ankle_angle_l	subtalar_angle_l	lumbar_extension	lumbar_bending	lumbar_rotation
      0.01000000	     -8.16404460	     -0.82168237	    -16.18638975	     -1.03971545	      0.88405343	     -0.43045963	      7.73679473	     -1.72241951	      5.68458424	     -7.33858373	     11.82249408	      0.10223394	      3.99323605	     -6.86594250	    -10.93114851	     -8.68803827	     14.85249323	      6.77920292	      3.36847573	      1.18934697	     12.45896708
      0.02000000	     -8.14794807	     -0.81660143	    -16.15288781	     -1.03980358	      0.88406429	     -0.43056536	      7.74270920	     -1.73363689	      5.67458100	     -7.36986799	     11.82568819	      0.09233135	      3.99978614	     -6.85370074	    -10.89708050	     -8.70237734	     14.84724169	      6.78197277	      3.34275309	      1.17958961	     12.51097313
      0.03000000	     -8.11573302	     -0.78733334	    -16.10613778	     -1.03990450	      0.88407704	     -0.43074326	      7.77374692	     -1.77652026	      5.62456594	     -7.46724533	     11.87684271	      0.03435269	      3.99276295	     -6.80365116	    -10.84392263	     -8.69735734	     14.84074797	      6.78354952	      3.30265152	      1.14458111	     12.54041905
      0.04000000	     -8.09334579	     -0.78208097	    -16.06062829	     -1.04002408	      0.88409419	     -0.43090164	      7.78424604	     -1.78949668	      5.62071658	     -7.51541464	     11.88083575	      0.01209999	      4.00498741	     -6.78761578	    -10.79622411	     -8.72338999	     14.83343399	      6.78375641	      3.26670590	      1.13225485	     12.60596525
      0.05000000	     -8.05554482	     -0.74644999	    -16.00323305	     -1.04014877	      0.88410406	     -0.43111552	      7.83785591	     -1.83798819	      5.56787333	     -7.66237395	     11.95526869	     -0.08798199	      4.00083193	     -6.72771313	    -10.73891667	     -8.72177447	     14.83180118	      6.77603262	      3.22222604	      1.08447696	     12.63666435
      0.06000000	     -8.02369716	     -0.72254632	    -15.94366437	     -1.04029391	      0.88411560	     -0.43133403	      7.88626871	     -1.87158496	      5.54561576	     -7.79127994	     12.00314124	     -0.18859418	      4.01186627	     -6.68389862	    -10.67444451	     -8.74127928	     14.82396099	      6.76461433	      3.17984819	      1.04874755	     12.68400556
      0.07000000	     -7.98899767	     -0.70189644	    -15.87951024	     -1.04043704	      0.88412867	     -0.43155769	      7.93656059	     -1.90201032	      5.51756589	     -7.93291802	     12.05789278	     -0.28887688	      4.02197222	     -6.64285095	    -10.60883085	     -8.76443532	     14.82092049	      6.75411099	      3.13651242	      1.01538477	     12.72846719
      0.08000000	     -7.95205496	     -0.68406736	    -15.80887114	     -1.04059378	      0.88414835	     -0.43178446	      7.98780826	     -1.92917985	      5.48805205	     -8.08273227	     12.11469020	     -0.38807469	      4.03316405	     -6.60427190	    -10.53489315	     -8.79003322	     14.81680219	      6.74551090	      3.08888580	      0.97910262	     12.77023056
      0.09000000	     -7.91086426	     -0.66879723	    -15.73410705	     -1.04073940	      0.88417523	     -0.43202265	      8.03691445	     -1.95616433	      5.45469779	     -8.24081531	     12.17294926	     -0.48386790	      4.03925746	     -6.56644157	    -10.45556582	     -8.81604732	     14.81413632	      6.73891028	      3.03795297	      0.94708334	     12.80508335
      0.10000000	     -7.86630007	     -0.65653031	    -15.65629217	     -1.04086869	      0.88420887	     -0.43226121	      8.07906896	     -1.98162708	      5.41871480	     -8.39778887	     12.23129333	     -0.57567062	      4.03965500	     -6.53011963	    -10.37297785	     -8.84007538	     14.81089364	      6.73327437	      2.98556142	      0.91742589	     12.83393581
      0.11000000	     -7.81820308	     -0.64592882	    -15.57666447	     -1.04096481	      0.88424748	     -0.43248252	      8.11148187	     -2.00590062	      5.37668787	     -8.55101785	     12.29321874	     -0.66957317	      4.03153772	     -6.49480416	    -10.28799225	     -8.86046017	     14.80604994	      6.72642142	      2.93579507	      0.88637677	     12.85610285
      0.12000000	     -7.76517536	     -0.63799974	    -15.49803559	     -1.04103954	      0.88429650	     -0.43270303	      8.13411845	     -2.03073325	      5.33352444	     -8.69830022	     12.35216631	     -0.76003344	      4.01447043	     -6.46100761	    -10.20103423	     -8.87826320	     14.80159795	      6.71818496	      2.88244606	      0.85897317	     12.87186684
      0.13000000	     -7.70906889	     -0.63248145	    -15.42011253	     -1.04108694	      0.88434760	     -0.43291434	      8.14629721	     -2.05436435	      5.28967574	     -8.83758966	     12.40909228	     -0.84280056	      3.98911810	     -6.42857394	    -10.11596766	     -8.89214991	     14.79905958	      6.70926571	      2.82876937	      0.83414449	     12.87817468
      0.14000000	     -7.65128329	     -0.62898842	    -15.34202422	     -1.04110994	      0.88440071	     -0.43312160	      8.14909742	     -2.07799567	      5.24428629	     -8.96685341	     12.46596097	     -0.92141063	      3.95882401	     -6.39765834	    -10.02929525	     -8.90476869	     14.79617820	      6.69972085	      2.77629240	      0.81041125	     12.87608774
      0.15000000	     -7.59356961	     -0.62789527	    -15.26355035	     -1.04111790	      0.88445152	     -0.43332235	      8.14584911	     -2.10071144	      5.19806679	     -9.08770584	     12.52013561	     -0.99304753	      3.92642101	     -6.37061761	     -9.94134572	     -8.91699494	     14.79495239	      6.69112388	      2.72483984	      0.79066275	     12.86514092
      0.16000000	     -7.53722930	     -0.62950218	    -15.18183414	     -1.04110846	      0.88450144	     -0.43351761	      8.13756405	     -2.12135383	      5.14493072	     -9.20149184	     12.57476947	     -1.06119514	      3.89320249	     -6.34718350	     -9.84977982	     -8.92801897	     14.79442370	      6.68392631	      2.67572434	      0.77258762	     12.84222849
      0.17000000	     -7.48423272	     -0.63426178	    -15.09631550	     -1.04109061	      0.88454700	     -0.43370526	      8.12595946	     -2.13878719	      5.08624365	     -9.30646976	     12.62522581	     -1.12525931	      3.86250695	     -6.32928368	     -9.75483573	     -8.93916589	     14.79377843	      6.67871786	      2.62949066	      0.75702573	     12.80832881
      0.18000000	     -7.43452634	     -0.64193768	    -15.00582148	     -1.04107228	      0.88458802	     -0.43389231	      8.11318367	     -2.15332118	      5.02010053	     -9.40559393	     12.67159455	     -1.18596902	      3.83558104	     -6.31604046	     -9.65566973	     -8.95065092	     14.79350452	      6.67594929	      2.58419845	      0.74449338	     12.76307262
